<mxfile host="65bd71144e" modified="2020-11-04T15:41:35.016Z" agent="5.0 (Windows NT 10.0; Win64; x64) AppleWebKit/537.36 (KHTML, like Gecko) Code/1.50.1 Chrome/83.0.4103.122 Electron/9.2.1 Safari/537.36" etag="wJeutWKhd6jL841C3qh_" version="13.6.5">
    <diagram id="6Q8lUKbk6GhdjO2A_t-F" name="Page-1">
        <mxGraphModel dx="525" dy="533" grid="1" gridSize="10" guides="1" tooltips="1" connect="1" arrows="1" fold="1" page="1" pageScale="1" pageWidth="827" pageHeight="1169" math="0" shadow="0">
            <root>
                <mxCell id="0"/>
                <mxCell id="1" parent="0"/>
                <mxCell id="18" style="edgeStyle=orthogonalEdgeStyle;rounded=0;orthogonalLoop=1;jettySize=auto;html=1;entryX=0;entryY=0.5;entryDx=0;entryDy=0;" edge="1" parent="1" source="9" target="15">
                    <mxGeometry relative="1" as="geometry"/>
                </mxCell>
                <mxCell id="14" value="MunicipalRegistry" style="swimlane;fontStyle=0;childLayout=stackLayout;horizontal=1;startSize=26;fillColor=none;horizontalStack=0;resizeParent=1;resizeParentMax=0;resizeLast=0;collapsible=1;marginBottom=0;" vertex="1" parent="1">
                    <mxGeometry x="570" y="100" width="420" height="210" as="geometry"/>
                </mxCell>
                <mxCell id="15" value="- lots : ArrayList&lt;Lot&gt;" style="text;fillColor=none;align=left;verticalAlign=top;spacingLeft=4;spacingRight=4;overflow=hidden;rotatable=0;points=[[0,0.5],[1,0.5]];portConstraint=eastwest;strokeColor=#f0f0f0;" vertex="1" parent="14">
                    <mxGeometry y="26" width="420" height="34" as="geometry"/>
                </mxCell>
                <mxCell id="16" value="+ MunicipalRegistry&#10;+ add(municipalityNumber : int, lotNumber : int, name : String, &#10;                                    squarefootage : double, owner : String) : void&#10;+ remove(id : String) : void&#10;+ getLots : ArrayList&lt;Lot&gt;&#10;+ getNumberofLot : int&#10;+ getLot(id : String) : Lot&#10;+ getAverageArea : double&#10;+ getLotNumber : ArrayList&lt;Lot&gt;&#10;+ toString : string" style="text;strokeColor=none;fillColor=none;align=left;verticalAlign=top;spacingLeft=4;spacingRight=4;overflow=hidden;rotatable=0;points=[[0,0.5],[1,0.5]];portConstraint=eastwest;" vertex="1" parent="14">
                    <mxGeometry y="60" width="420" height="150" as="geometry"/>
                </mxCell>
                <mxCell id="19" value="Compsition" style="text;html=1;strokeColor=none;fillColor=none;align=center;verticalAlign=middle;whiteSpace=wrap;rounded=0;" vertex="1" parent="1">
                    <mxGeometry x="470" y="60" width="40" height="20" as="geometry"/>
                </mxCell>
                <mxCell id="22" style="edgeStyle=orthogonalEdgeStyle;rounded=0;orthogonalLoop=1;jettySize=auto;html=1;dashed=1;" edge="1" parent="1" source="21">
                    <mxGeometry relative="1" as="geometry">
                        <mxPoint x="230" y="630" as="targetPoint"/>
                    </mxGeometry>
                </mxCell>
                <mxCell id="21" value="main" style="text;fillColor=none;html=1;fontSize=24;fontStyle=1;verticalAlign=middle;align=center;strokeColor=#f0f0f0;" vertex="1" parent="1">
                    <mxGeometry x="180" y="540" width="100" height="40" as="geometry"/>
                </mxCell>
                <mxCell id="29" style="edgeStyle=orthogonalEdgeStyle;rounded=0;orthogonalLoop=1;jettySize=auto;html=1;exitX=1;exitY=0;exitDx=0;exitDy=0;entryX=0;entryY=0.25;entryDx=0;entryDy=0;dashed=1;" edge="1" parent="1" source="23" target="26">
                    <mxGeometry relative="1" as="geometry"/>
                </mxCell>
                <mxCell id="38" style="edgeStyle=orthogonalEdgeStyle;rounded=0;orthogonalLoop=1;jettySize=auto;html=1;exitX=1;exitY=0.25;exitDx=0;exitDy=0;entryX=-0.048;entryY=0.033;entryDx=0;entryDy=0;entryPerimeter=0;dashed=1;" edge="1" parent="1" source="23" target="31">
                    <mxGeometry relative="1" as="geometry">
                        <Array as="points">
                            <mxPoint x="250" y="687"/>
                            <mxPoint x="358" y="687"/>
                        </Array>
                    </mxGeometry>
                </mxCell>
                <mxCell id="49" style="edgeStyle=orthogonalEdgeStyle;rounded=0;orthogonalLoop=1;jettySize=auto;html=1;exitX=1;exitY=0.75;exitDx=0;exitDy=0;dashed=1;" edge="1" parent="1" source="23">
                    <mxGeometry relative="1" as="geometry">
                        <mxPoint x="360" y="795" as="targetPoint"/>
                    </mxGeometry>
                </mxCell>
                <mxCell id="58" style="edgeStyle=orthogonalEdgeStyle;rounded=0;orthogonalLoop=1;jettySize=auto;html=1;exitX=0.5;exitY=1;exitDx=0;exitDy=0;dashed=1;" edge="1" parent="1" source="23">
                    <mxGeometry relative="1" as="geometry">
                        <mxPoint x="230" y="880" as="targetPoint"/>
                    </mxGeometry>
                </mxCell>
                <mxCell id="8" value="Lot" style="swimlane;fontStyle=0;childLayout=stackLayout;horizontal=1;startSize=26;fillColor=none;horizontalStack=0;resizeParent=1;resizeParentMax=0;resizeLast=0;collapsible=1;marginBottom=0;" parent="1" vertex="1">
                    <mxGeometry x="20" y="40" width="420" height="350" as="geometry"/>
                </mxCell>
                <mxCell id="9" value="- municipalityNumber : int&#10;- municipalityName : String&#10;- lotNumber : int&#10;- sectionNumber : int&#10;- name : String&#10;- squarefootage : double&#10;- owner : String " style="text;fillColor=none;align=left;verticalAlign=top;spacingLeft=4;spacingRight=4;overflow=hidden;rotatable=0;points=[[0,0.5],[1,0.5]];portConstraint=eastwest;strokeColor=#f0f0f0;" parent="8" vertex="1">
                    <mxGeometry y="26" width="420" height="114" as="geometry"/>
                </mxCell>
                <mxCell id="10" value="+ Lot(municipalityNumber : int, lotNumber : int, name : String, &#10;                                    squarefootage : double, owner : String)&#10;+ getMunicipalityNumber : int&#10;+ getMunicipalityName : String&#10;+ getLotNumber : int&#10;+ getSectionNumber : int&#10;+ getName : String&#10;+ getSqarefootage : double&#10;+ getOwner : String&#10;+ getID : String&#10;- findMunicipalityName(municipalityNumber : int) : String&#10;+ equals(obj : Object) : boolean&#10;+ clone : Lot&#10;+ toString : string" style="text;strokeColor=none;fillColor=none;align=left;verticalAlign=top;spacingLeft=4;spacingRight=4;overflow=hidden;rotatable=0;points=[[0,0.5],[1,0.5]];portConstraint=eastwest;" parent="8" vertex="1">
                    <mxGeometry y="140" width="420" height="210" as="geometry"/>
                </mxCell>
                <mxCell id="23" value="" style="shape=ext;double=1;rounded=0;whiteSpace=wrap;html=1;strokeColor=#f0f0f0;" vertex="1" parent="1">
                    <mxGeometry x="210" y="630" width="40" height="220" as="geometry"/>
                </mxCell>
                <mxCell id="33" style="edgeStyle=orthogonalEdgeStyle;rounded=0;orthogonalLoop=1;jettySize=auto;html=1;entryX=0.5;entryY=0;entryDx=0;entryDy=0;dashed=1;" edge="1" parent="1" source="26" target="31">
                    <mxGeometry relative="1" as="geometry"/>
                </mxCell>
                <mxCell id="26" value="municipalRegistry" style="text;fillColor=none;html=1;fontSize=24;fontStyle=1;verticalAlign=middle;align=center;strokeColor=#f0f0f0;" vertex="1" parent="1">
                    <mxGeometry x="280" y="620" width="210" height="40" as="geometry"/>
                </mxCell>
                <mxCell id="48" style="edgeStyle=orthogonalEdgeStyle;rounded=0;orthogonalLoop=1;jettySize=auto;html=1;exitX=0.5;exitY=1;exitDx=0;exitDy=0;dashed=1;entryX=0.5;entryY=0;entryDx=0;entryDy=0;" edge="1" parent="1" source="28" target="53">
                    <mxGeometry relative="1" as="geometry">
                        <mxPoint x="540" y="760" as="targetPoint"/>
                    </mxGeometry>
                </mxCell>
                <mxCell id="28" value="lot" style="text;fillColor=none;html=1;fontSize=24;fontStyle=1;verticalAlign=middle;align=center;strokeColor=#f0f0f0;" vertex="1" parent="1">
                    <mxGeometry x="490" y="680" width="100" height="40" as="geometry"/>
                </mxCell>
                <mxCell id="40" style="edgeStyle=orthogonalEdgeStyle;rounded=0;orthogonalLoop=1;jettySize=auto;html=1;exitX=1;exitY=0.5;exitDx=0;exitDy=0;dashed=1;entryX=0;entryY=0.5;entryDx=0;entryDy=0;" edge="1" parent="1" source="31" target="28">
                    <mxGeometry relative="1" as="geometry">
                        <mxPoint x="481.6134033203125" y="735" as="targetPoint"/>
                        <Array as="points">
                            <mxPoint x="400" y="700"/>
                        </Array>
                    </mxGeometry>
                </mxCell>
                <mxCell id="46" style="edgeStyle=orthogonalEdgeStyle;rounded=0;orthogonalLoop=1;jettySize=auto;html=1;exitX=0;exitY=1;exitDx=0;exitDy=0;entryX=1.1;entryY=0.414;entryDx=0;entryDy=0;entryPerimeter=0;dashed=1;" edge="1" parent="1" source="31" target="23">
                    <mxGeometry relative="1" as="geometry">
                        <Array as="points">
                            <mxPoint x="254" y="730"/>
                        </Array>
                    </mxGeometry>
                </mxCell>
                <mxCell id="47" style="edgeStyle=orthogonalEdgeStyle;rounded=0;orthogonalLoop=1;jettySize=auto;html=1;exitX=0.5;exitY=1;exitDx=0;exitDy=0;dashed=1;entryX=0.5;entryY=0;entryDx=0;entryDy=0;" edge="1" parent="1" source="31" target="50">
                    <mxGeometry relative="1" as="geometry">
                        <mxPoint x="380" y="760" as="targetPoint"/>
                    </mxGeometry>
                </mxCell>
                <mxCell id="31" value="" style="shape=ext;double=1;rounded=0;whiteSpace=wrap;html=1;strokeColor=#f0f0f0;" vertex="1" parent="1">
                    <mxGeometry x="360" y="680" width="40" height="50" as="geometry"/>
                </mxCell>
                <mxCell id="37" style="edgeStyle=orthogonalEdgeStyle;rounded=0;orthogonalLoop=1;jettySize=auto;html=1;exitX=0.5;exitY=1;exitDx=0;exitDy=0;dashed=1;" edge="1" parent="1">
                    <mxGeometry relative="1" as="geometry">
                        <mxPoint x="290" y="710" as="sourcePoint"/>
                        <mxPoint x="290" y="710" as="targetPoint"/>
                    </mxGeometry>
                </mxCell>
                <mxCell id="39" value="add" style="text;html=1;strokeColor=none;fillColor=none;align=center;verticalAlign=middle;whiteSpace=wrap;rounded=0;" vertex="1" parent="1">
                    <mxGeometry x="260" y="670" width="40" height="20" as="geometry"/>
                </mxCell>
                <mxCell id="41" value="new" style="text;html=1;strokeColor=none;fillColor=none;align=center;verticalAlign=middle;whiteSpace=wrap;rounded=0;" vertex="1" parent="1">
                    <mxGeometry x="414" y="680" width="40" height="20" as="geometry"/>
                </mxCell>
                <mxCell id="42" value="new" style="text;html=1;strokeColor=none;fillColor=none;align=center;verticalAlign=middle;whiteSpace=wrap;rounded=0;" vertex="1" parent="1">
                    <mxGeometry x="230" y="610" width="40" height="20" as="geometry"/>
                </mxCell>
                <mxCell id="52" style="edgeStyle=orthogonalEdgeStyle;rounded=0;orthogonalLoop=1;jettySize=auto;html=1;exitX=1;exitY=0.25;exitDx=0;exitDy=0;dashed=1;" edge="1" parent="1" source="50">
                    <mxGeometry relative="1" as="geometry">
                        <mxPoint x="520" y="803" as="targetPoint"/>
                    </mxGeometry>
                </mxCell>
                <mxCell id="57" style="edgeStyle=orthogonalEdgeStyle;rounded=0;orthogonalLoop=1;jettySize=auto;html=1;exitX=0;exitY=1;exitDx=0;exitDy=0;dashed=1;" edge="1" parent="1" source="50">
                    <mxGeometry relative="1" as="geometry">
                        <mxPoint x="250" y="841" as="targetPoint"/>
                        <Array as="points">
                            <mxPoint x="360" y="841"/>
                        </Array>
                    </mxGeometry>
                </mxCell>
                <mxCell id="59" style="edgeStyle=orthogonalEdgeStyle;rounded=0;orthogonalLoop=1;jettySize=auto;html=1;exitX=0.5;exitY=1;exitDx=0;exitDy=0;dashed=1;" edge="1" parent="1" source="50">
                    <mxGeometry relative="1" as="geometry">
                        <mxPoint x="380" y="880" as="targetPoint"/>
                    </mxGeometry>
                </mxCell>
                <mxCell id="50" value="" style="shape=ext;double=1;rounded=0;whiteSpace=wrap;html=1;strokeColor=#f0f0f0;" vertex="1" parent="1">
                    <mxGeometry x="360" y="790" width="40" height="50" as="geometry"/>
                </mxCell>
                <mxCell id="51" value="toString" style="text;html=1;strokeColor=none;fillColor=none;align=center;verticalAlign=middle;whiteSpace=wrap;rounded=0;" vertex="1" parent="1">
                    <mxGeometry x="270" y="770" width="40" height="20" as="geometry"/>
                </mxCell>
                <mxCell id="56" style="edgeStyle=orthogonalEdgeStyle;rounded=0;orthogonalLoop=1;jettySize=auto;html=1;exitX=0;exitY=1;exitDx=0;exitDy=0;entryX=1;entryY=0.75;entryDx=0;entryDy=0;dashed=1;" edge="1" parent="1" source="53" target="50">
                    <mxGeometry relative="1" as="geometry">
                        <Array as="points">
                            <mxPoint x="520" y="828"/>
                            <mxPoint x="460" y="828"/>
                        </Array>
                    </mxGeometry>
                </mxCell>
                <mxCell id="60" style="edgeStyle=orthogonalEdgeStyle;rounded=0;orthogonalLoop=1;jettySize=auto;html=1;exitX=0.5;exitY=1;exitDx=0;exitDy=0;dashed=1;" edge="1" parent="1" source="53">
                    <mxGeometry relative="1" as="geometry">
                        <mxPoint x="540" y="880" as="targetPoint"/>
                    </mxGeometry>
                </mxCell>
                <mxCell id="53" value="" style="shape=ext;double=1;rounded=0;whiteSpace=wrap;html=1;strokeColor=#f0f0f0;" vertex="1" parent="1">
                    <mxGeometry x="520" y="800" width="40" height="30" as="geometry"/>
                </mxCell>
                <mxCell id="54" value="toString" style="text;html=1;strokeColor=none;fillColor=none;align=center;verticalAlign=middle;whiteSpace=wrap;rounded=0;" vertex="1" parent="1">
                    <mxGeometry x="414" y="780" width="40" height="20" as="geometry"/>
                </mxCell>
                <mxCell id="55" style="edgeStyle=orthogonalEdgeStyle;rounded=0;orthogonalLoop=1;jettySize=auto;html=1;exitX=0.5;exitY=1;exitDx=0;exitDy=0;dashed=1;" edge="1" parent="1" source="53" target="53">
                    <mxGeometry relative="1" as="geometry"/>
                </mxCell>
            </root>
        </mxGraphModel>
    </diagram>
</mxfile>